<svg width="20" height="20" viewBox="0 0 20 20" fill="none" xmlns="http://www.w3.org/2000/svg">
<path d="M9.7 0C8.42618 0 7.16483 0.265079 5.98797 0.780103C4.81111 1.29513 3.74179 2.05001 2.84106 3.00165C1.02196 4.92357 0 7.53026 0 10.2483C0 14.778 2.7839 18.6211 6.6348 19.9841C7.1198 20.0661 7.275 19.7484 7.275 19.4717V17.7398C4.5881 18.3547 4.0158 16.3665 4.0158 16.3665C3.5696 15.1777 2.9391 14.86 2.9391 14.86C2.0564 14.2246 3.007 14.2451 3.007 14.2451C3.977 14.3168 4.4911 15.3007 4.4911 15.3007C5.335 16.8584 6.7609 16.3972 7.3138 16.1513C7.4011 15.4851 7.6533 15.0342 7.9249 14.778C5.7715 14.5218 3.5114 13.6404 3.5114 9.73586C3.5114 8.5983 3.88 7.6862 4.5105 6.95858C4.4135 6.70237 4.074 5.63655 4.6075 4.25303C4.6075 4.25303 5.4223 3.97633 7.275 5.29836C8.0413 5.07289 8.8755 4.96016 9.7 4.96016C10.5245 4.96016 11.3587 5.07289 12.125 5.29836C13.9777 3.97633 14.7925 4.25303 14.7925 4.25303C15.326 5.63655 14.9865 6.70237 14.8895 6.95858C15.52 7.6862 15.8886 8.5983 15.8886 9.73586C15.8886 13.6507 13.6188 14.5116 11.4557 14.7678C11.8049 15.0855 12.125 15.7106 12.125 16.6637V19.4717C12.125 19.7484 12.2802 20.0764 12.7749 19.9841C16.6258 18.6109 19.4 14.778 19.4 10.2483C19.4 8.90245 19.1491 7.5698 18.6616 6.32643C18.1742 5.08305 17.4597 3.95329 16.5589 3.00165C15.6582 2.05001 14.5889 1.29513 13.412 0.780103C12.2352 0.265079 10.9738 0 9.7 0Z" fill="black"/>
</svg>
