<svg width="21" height="20" viewBox="0 0 21 20" fill="none" xmlns="http://www.w3.org/2000/svg">
<path d="M6.2842 0H14.4322C17.5362 0 20.0582 2.6 20.0582 5.8V14.2C20.0582 15.7383 19.4655 17.2135 18.4104 18.3012C17.3553 19.3889 15.9243 20 14.4322 20H6.2842C3.1802 20 0.658203 17.4 0.658203 14.2V5.8C0.658203 4.26174 1.25094 2.78649 2.30602 1.69878C3.3611 0.61107 4.79209 0 6.2842 0ZM6.0902 2C5.16407 2 4.27586 2.37928 3.62099 3.05442C2.96611 3.72955 2.5982 4.64522 2.5982 5.6V14.4C2.5982 16.39 4.1599 18 6.0902 18H14.6262C15.5523 18 16.4405 17.6207 17.0954 16.9456C17.7503 16.2705 18.1182 15.3548 18.1182 14.4V5.6C18.1182 3.61 16.5565 2 14.6262 2H6.0902ZM15.4507 3.5C15.7723 3.5 16.0807 3.6317 16.3081 3.86612C16.5355 4.10054 16.6632 4.41848 16.6632 4.75C16.6632 5.08152 16.5355 5.39946 16.3081 5.63388C16.0807 5.8683 15.7723 6 15.4507 6C15.1291 6 14.8207 5.8683 14.5933 5.63388C14.3659 5.39946 14.2382 5.08152 14.2382 4.75C14.2382 4.41848 14.3659 4.10054 14.5933 3.86612C14.8207 3.6317 15.1291 3.5 15.4507 3.5ZM10.3582 5C11.6445 5 12.8781 5.52678 13.7877 6.46447C14.6972 7.40215 15.2082 8.67392 15.2082 10C15.2082 11.3261 14.6972 12.5979 13.7877 13.5355C12.8781 14.4732 11.6445 15 10.3582 15C9.0719 15 7.83829 14.4732 6.92873 13.5355C6.01918 12.5979 5.5082 11.3261 5.5082 10C5.5082 8.67392 6.01918 7.40215 6.92873 6.46447C7.83829 5.52678 9.0719 5 10.3582 5ZM10.3582 7C9.58642 7 8.84625 7.31607 8.30052 7.87868C7.75479 8.44129 7.4482 9.20435 7.4482 10C7.4482 10.7956 7.75479 11.5587 8.30052 12.1213C8.84625 12.6839 9.58642 13 10.3582 13C11.13 13 11.8702 12.6839 12.4159 12.1213C12.9616 11.5587 13.2682 10.7956 13.2682 10C13.2682 9.20435 12.9616 8.44129 12.4159 7.87868C11.8702 7.31607 11.13 7 10.3582 7Z" fill="url(#paint0_linear_555_112)"/>
<defs>
<linearGradient id="paint0_linear_555_112" x1="6.18004" y1="5.9356e-08" x2="13.6333" y2="20.3128" gradientUnits="userSpaceOnUse">
<stop stop-color="#9B28F5"/>
<stop offset="0.27" stop-color="#D28FCF"/>
<stop offset="0.795" stop-color="#FDBA6B"/>
<stop offset="1" stop-color="#E9EB75"/>
</linearGradient>
</defs>
</svg>
