<svg width="22" height="20" viewBox="0 0 22 20" fill="none" xmlns="http://www.w3.org/2000/svg">
<path d="M2.48659 19.4118C1.89033 19.4118 1.38007 19.1816 0.95582 18.7212C0.531569 18.2608 0.319082 17.7067 0.318359 17.0588V2.9412C0.318359 2.29414 0.530846 1.74041 0.95582 1.28002C1.38079 0.819629 1.89105 0.589041 2.48659 0.588257H19.8325C20.4287 0.588257 20.9394 0.818845 21.3643 1.28002C21.7893 1.7412 22.0014 2.29492 22.0007 2.9412V17.0588C22.0007 17.7059 21.7886 18.26 21.3643 18.7212C20.9401 19.1824 20.4295 19.4126 19.8325 19.4118H2.48659ZM11.1595 11.1765L2.48659 5.29414V17.0588H19.8325V5.29414L11.1595 11.1765ZM11.1595 8.82355L19.8325 2.9412H2.48659L11.1595 8.82355ZM2.48659 5.29414V2.9412V17.0588V5.29414Z" fill="#9CC0D9"/>
</svg>
